HIERARCHY
ROOT hip
{
  OFFSET 0.00112043 5.09927 -9.65472
  CHANNELS 6 Xposition Yposition Zposition Zrotation Xrotation Yrotation
  JOINT abdomen
  {
    OFFSET 0 -1.186 -1.5018
    CHANNELS 3 Zrotation Xrotation Yrotation
    JOINT abdomen2
    {
      OFFSET 0 9.964 0.2134
      CHANNELS 3 Zrotation Xrotation Yrotation
      JOINT chest
      {
        OFFSET 0 13.134 -3.2573
        CHANNELS 3 Zrotation Xrotation Yrotation
        JOINT neck
        {
          OFFSET 0 20.686 -1.6905
          CHANNELS 3 Zrotation Xrotation Yrotation
          JOINT head
          {
            OFFSET 0 7.238 -0.1237
            CHANNELS 3 Zrotation Xrotation Yrotation
            End Site
            {
              OFFSET 0 0 0
            }
          }
        }
        JOINT lCollar
        {
          OFFSET 1.7069 20.075 5.0056
          CHANNELS 3 Zrotation Xrotation Yrotation
          JOINT lShldr
          {
            OFFSET 13.6458 -0.047 -4.849
            CHANNELS 3 Zrotation Xrotation Yrotation
            JOINT lForeArm
            {
              OFFSET 28.3255 -0.9759 2.2888
              CHANNELS 3 Zrotation Xrotation Yrotation
              JOINT lHand
              {
                OFFSET 22.1583 -0.53 10.8316
                CHANNELS 3 Zrotation Xrotation Yrotation
                JOINT lThumb1
                {
                  OFFSET 0.786 0.112 2.5817
                  CHANNELS 3 Zrotation Xrotation Yrotation
                  JOINT lThumb2
                  {
                    OFFSET 0.3601 -0.878 4.2331
                    CHANNELS 3 Zrotation Xrotation Yrotation
                    JOINT lThumb2_End
                    {
                      OFFSET 1.8127 -1.216 2.2227
                      CHANNELS 3 Zrotation Xrotation Yrotation
                      End Site
                      {
                        OFFSET 0.0181 -0.0122 0.0222
                      }
                    }
                  }
                }
                JOINT lCarpal1
                {
                  OFFSET 0.9571 1.114 1.7695
                  CHANNELS 3 Zrotation Xrotation Yrotation
                  JOINT lIndex1
                  {
                    OFFSET 4.1246 0.487 4.1451
                    CHANNELS 3 Zrotation Xrotation Yrotation
                    JOINT lIndex2
                    {
                      OFFSET 3.4052 -1.454 2.7682
                      CHANNELS 3 Zrotation Xrotation Yrotation
                      JOINT lIndex2_End
                      {
                        OFFSET 1.4531 -1.795 1.2713
                        CHANNELS 3 Zrotation Xrotation Yrotation
                        End Site
                        {
                          OFFSET 0.0145 -0.0179 0.0127
                        }
                      }
                    }
                  }
                  JOINT lMid1
                  {
                    OFFSET 5.6954 0.21 2.1184
                    CHANNELS 3 Zrotation Xrotation Yrotation
                    JOINT lMid2
                    {
                      OFFSET 3.9766 -1.54 2.3863
                      CHANNELS 3 Zrotation Xrotation Yrotation
                      JOINT lMid2_End
                      {
                        OFFSET 1.4042 -1.926 1.125
                        CHANNELS 3 Zrotation Xrotation Yrotation
                        End Site
                        {
                          OFFSET 0.014 -0.0193 0.0113
                        }
                      }
                    }
                  }
                }
                JOINT lCarpal2
                {
                  OFFSET 2.0956 0.66 -0.3894
                  CHANNELS 3 Zrotation Xrotation Yrotation
                  JOINT lRing1
                  {
                    OFFSET 5.0395 -0.09 2.4971
                    CHANNELS 3 Zrotation Xrotation Yrotation
                    JOINT lRing2
                    {
                      OFFSET 3.7921 -1.552 1.4806
                      CHANNELS 3 Zrotation Xrotation Yrotation
                      JOINT lRing2_End
                      {
                        OFFSET 1.4655 -1.808 0.9609
                        CHANNELS 3 Zrotation Xrotation Yrotation
                        End Site
                        {
                          OFFSET 0.0147 -0.0181 0.0096
                        }
                      }
                    }
                  }
                  JOINT lPinky1
                  {
                    OFFSET 4.9141 -1.269 0.3591
                    CHANNELS 3 Zrotation Xrotation Yrotation
                    JOINT lPinky2
                    {
                      OFFSET 3.1477 -1.685 0.8462
                      CHANNELS 3 Zrotation Xrotation Yrotation
                      JOINT lPinky2_End
                      {
                        OFFSET 0.8055 -1.585 0.7955
                        CHANNELS 3 Zrotation Xrotation Yrotation
                        End Site
                        {
                          OFFSET 0.0081 -0.0158 0.008
                        }
                      }
                    }
                  }
                }
              }
            }
          }
        }
        JOINT rCollar
        {
          OFFSET -1.7069 20.075 5.0056
          CHANNELS 3 Zrotation Xrotation Yrotation
          JOINT rShldr
          {
            OFFSET -13.6458 -0.047 -4.849
            CHANNELS 3 Zrotation Xrotation Yrotation
            JOINT rForeArm
            {
              OFFSET -28.3255 -0.9759 2.2888
              CHANNELS 3 Zrotation Xrotation Yrotation
              JOINT rHand
              {
                OFFSET -22.1583 -0.53 10.8316
                CHANNELS 3 Zrotation Xrotation Yrotation
                JOINT rThumb1
                {
                  OFFSET -0.786 0.112 2.5817
                  CHANNELS 3 Zrotation Xrotation Yrotation
                  JOINT rThumb2
                  {
                    OFFSET -0.3601 -0.878 4.2331
                    CHANNELS 3 Zrotation Xrotation Yrotation
                    JOINT rThumb2_End
                    {
                      OFFSET -1.8127 -1.216 2.2227
                      CHANNELS 3 Zrotation Xrotation Yrotation
                      End Site
                      {
                        OFFSET -0.0181 -0.0122 0.0222
                      }
                    }
                  }
                }
                JOINT rCarpal1
                {
                  OFFSET -0.9571 1.114 1.7695
                  CHANNELS 3 Zrotation Xrotation Yrotation
                  JOINT rIndex1
                  {
                    OFFSET -4.1246 0.487 4.1451
                    CHANNELS 3 Zrotation Xrotation Yrotation
                    JOINT rIndex2
                    {
                      OFFSET -3.4052 -1.454 2.7682
                      CHANNELS 3 Zrotation Xrotation Yrotation
                      JOINT rIndex2_End
                      {
                        OFFSET -1.4531 -1.795 1.2713
                        CHANNELS 3 Zrotation Xrotation Yrotation
                        End Site
                        {
                          OFFSET -0.0145 -0.018 0.0127
                        }
                      }
                    }
                  }
                  JOINT rMid1
                  {
                    OFFSET -5.6954 0.21 2.1184
                    CHANNELS 3 Zrotation Xrotation Yrotation
                    JOINT rMid2
                    {
                      OFFSET -3.9766 -1.54 2.3863
                      CHANNELS 3 Zrotation Xrotation Yrotation
                      JOINT rMid2_End
                      {
                        OFFSET -1.4042 -1.926 1.125
                        CHANNELS 3 Zrotation Xrotation Yrotation
                        End Site
                        {
                          OFFSET -0.014 -0.0193 0.0113
                        }
                      }
                    }
                  }
                }
                JOINT rCarpal2
                {
                  OFFSET -2.0956 0.66 -0.3894
                  CHANNELS 3 Zrotation Xrotation Yrotation
                  JOINT rRing1
                  {
                    OFFSET -5.0395 -0.09 2.4971
                    CHANNELS 3 Zrotation Xrotation Yrotation
                    JOINT rRing2
                    {
                      OFFSET -3.7921 -1.552 1.4806
                      CHANNELS 3 Zrotation Xrotation Yrotation
                      JOINT rRing2_End
                      {
                        OFFSET -1.4655 -1.808 0.9609
                        CHANNELS 3 Zrotation Xrotation Yrotation
                        End Site
                        {
                          OFFSET -0.0147 -0.0181 0.0096
                        }
                      }
                    }
                  }
                  JOINT rPinky1
                  {
                    OFFSET -4.9141 -1.269 0.3592
                    CHANNELS 3 Zrotation Xrotation Yrotation
                    JOINT rPinky2
                    {
                      OFFSET -3.1477 -1.685 0.8462
                      CHANNELS 3 Zrotation Xrotation Yrotation
                      JOINT rPinky2_End
                      {
                        OFFSET -0.8055 -1.585 0.7955
                        CHANNELS 3 Zrotation Xrotation Yrotation
                        End Site
                        {
                          OFFSET -0.0081 -0.0158 0.008
                        }
                      }
                    }
                  }
                }
              }
            }
          }
        }
      }
    }
  }
  JOINT lThigh
  {
    OFFSET 8.367 -8.2066 0.5982
    CHANNELS 3 Zrotation Xrotation Yrotation
    JOINT lShin
    {
      OFFSET 2.1923 -43.463 -0.4932
      CHANNELS 3 Zrotation Xrotation Yrotation
      JOINT lFoot
      {
        OFFSET 0.7333 -45.8593 -2.6451
        CHANNELS 3 Zrotation Xrotation Yrotation
        End Site
        {
          OFFSET 2.6618 -4.2699 12.3931
        }
      }
    }
  }
  JOINT rThigh
  {
    OFFSET -8.367 -8.2066 0.5982
    CHANNELS 3 Zrotation Xrotation Yrotation
    JOINT rShin
    {
      OFFSET -2.1923 -43.463 -0.4931
      CHANNELS 3 Zrotation Xrotation Yrotation
      JOINT rFoot
      {
        OFFSET -0.7333 -45.8593 -2.6451
        CHANNELS 3 Zrotation Xrotation Yrotation
        End Site
        {
          OFFSET -2.6618 -4.2699 12.3931
        }
      }
    }
  }
}
MOTION
Frames:	4
Frame Time:	0.0333333
0.0013809 76.8248 61.5379 -180 70.0004 -180 -0.232083 12.1415 -0.256559 -0.421797 24.2838 -0.478171 -0.421797 24.2838 -0.478171 1.0731e-005 -5.69604 1.30153e-006 7.73007e-008 19.0327 -6.15307e-007 41.3891 -5.58931 -5.98666 30.4378 -58.4866 -14.6796 12.4938 -2.52454 12.775 -3.63806 0.837769 -0.040808 1.59028e-015 -1.59028e-015 -6.75868e-015 -1.29375e-006 -1.97799e-006 -1.78323e-006 -1.59028e-015 -1.59028e-015 -0 1.59028e-015 1.59028e-015 -5.1684e-015 -1.59028e-015 6.36111e-015 1.43125e-014 -1.29375e-006 -1.97799e-006 -1.78323e-006 1.59028e-015 -6.36111e-015 -1.59028e-015 -1.59028e-015 6.36111e-015 1.43125e-014 -1.29375e-006 -1.97799e-006 -1.78323e-006 1.59028e-015 -6.36111e-015 -1.59028e-015 1.59028e-015 1.59028e-015 -5.1684e-015 -1.59028e-015 6.36111e-015 1.43125e-014 -1.29375e-006 -1.97799e-006 -1.78323e-006 1.59028e-015 -6.36111e-015 -1.59028e-015 -1.59028e-015 6.36111e-015 1.43125e-014 -1.29375e-006 -1.97799e-006 -1.78323e-006 1.59028e-015 -6.36111e-015 -1.59028e-015 -41.5774 -5.54694 5.98301 -30.1104 -58.4715 15.688 -14.3157 -2.11031 -13.9127 3.78773 0.686723 -0.277201 3.18055e-015 9.54166e-015 -2.38542e-015 -8.82781e-032 6.36111e-015 7.95139e-016 1.59028e-015 1.27222e-014 -5.56597e-015 3.18055e-015 6.36111e-015 -2.38542e-015 3.18055e-015 3.18055e-015 -0 1.59028e-015 9.54166e-015 -6.36111e-015 3.18055e-015 6.36111e-015 -3.18055e-015 3.18055e-015 3.18055e-015 -0 1.59028e-015 9.54166e-015 -6.36111e-015 3.18055e-015 6.36111e-015 -3.18055e-015 3.18055e-015 6.36111e-015 -2.38542e-015 3.18055e-015 3.18055e-015 -0 1.59028e-015 9.54166e-015 -6.36111e-015 3.18055e-015 6.36111e-015 -3.18055e-015 3.18055e-015 3.18055e-015 -0 1.59028e-015 9.54166e-015 -6.36111e-015 3.18055e-015 6.36111e-015 -3.18055e-015 176.39 -69.4735 173.15 -3.84562 -0.479425 2.27282 7.2613 42.1588 3.49319 -176.135 -69.5376 -172.921 3.95374 -0.611997 -2.33426 -7.40238 42.1925 -3.41098 
0.0013809 76.8248 61.5954 -180 70.0004 -180 -0.231715 12.1816 -0.257566 -0.420692 24.364 -0.480269 -0.420692 24.364 -0.480268 5.66681e-006 -5.43563 1.99538e-006 6.53902e-008 19.4735 -2.3885e-007 41.4641 -5.67173 -5.89133 30.4378 -58.4866 -14.6796 12.4938 -2.52455 12.775 -3.63805 0.837776 -0.0408228 -2.71704e-007 5.8053e-006 -1.732e-006 -4.77083e-015 -2.22639e-014 -3.57812e-015 5.50979e-006 -1.75029e-006 -9.80612e-008 1.76556e-031 -6.36111e-015 1.59028e-015 -2.71704e-007 5.8053e-006 -1.732e-006 -3.18055e-015 -1.90833e-014 -3.97569e-016 5.50979e-006 -1.75029e-006 -9.80612e-008 -2.71704e-007 5.8053e-006 -1.732e-006 -3.18055e-015 -1.90833e-014 -3.97569e-016 5.50979e-006 -1.75029e-006 -9.80612e-008 1.76556e-031 -6.36111e-015 1.59028e-015 -2.71704e-007 5.8053e-006 -1.732e-006 -3.18055e-015 -1.90833e-014 -3.97569e-016 5.50979e-006 -1.75029e-006 -9.80612e-008 -2.71704e-007 5.8053e-006 -1.732e-006 -3.18055e-015 -1.90833e-014 -3.97569e-016 5.50979e-006 -1.75029e-006 -9.80612e-008 -41.6604 -5.62822 5.88846 -30.1104 -58.4715 15.688 -14.3157 -2.11031 -13.9127 3.78774 0.686719 -0.277204 -1.59028e-015 -3.18055e-015 -3.18055e-015 1.59028e-015 6.36111e-015 -3.97569e-015 -1.76556e-031 6.36111e-015 1.59028e-015 -1.59028e-015 -3.18055e-015 -3.18055e-015 3.18055e-015 6.36111e-015 -3.18055e-015 -1.59028e-015 0 -7.95139e-016 3.18055e-015 6.36111e-015 7.95139e-016 3.18055e-015 6.36111e-015 -3.18055e-015 -1.59028e-015 0 -7.95139e-016 3.18055e-015 6.36111e-015 7.95139e-016 -1.59028e-015 -3.18055e-015 -3.18055e-015 3.18055e-015 6.36111e-015 -3.18055e-015 -1.59028e-015 0 -7.95139e-016 3.18055e-015 6.36111e-015 7.95139e-016 3.18055e-015 6.36111e-015 -3.18055e-015 -1.59028e-015 0 -7.95139e-016 3.18055e-015 6.36111e-015 7.95139e-016 176.39 -69.4735 173.15 -3.84562 -0.479425 2.27282 7.2613 42.1588 3.49319 -176.135 -69.5376 -172.921 3.95374 -0.611997 -2.33426 -7.40238 42.1925 -3.41098 
0.0013809 76.8248 61.6529 -180 70.0004 -180 -0.231344 12.2217 -0.258579 -0.419576 24.4441 -0.482381 -0.419576 24.4442 -0.482381 3.03699e-007 -5.17537 -5.77677e-008 -3.67461e-008 19.9137 2.3011e-007 41.5393 -5.75403 -5.79586 30.4378 -58.4867 -14.6796 12.4939 -2.52453 12.775 -3.63806 0.837785 -0.0408466 3.18055e-015 7.95139e-015 -2.78299e-015 3.08973e-031 6.36111e-015 -2.78299e-015 8.82781e-032 6.36111e-015 -7.95139e-016 3.18055e-015 3.18055e-015 -2.78299e-015 -3.86217e-031 7.95139e-015 2.78299e-015 -3.18055e-015 3.18055e-015 -3.97569e-016 -4.77083e-015 4.77083e-015 -1.59028e-015 -3.86217e-031 7.95139e-015 2.78299e-015 -3.18055e-015 3.18055e-015 -3.97569e-016 -4.77083e-015 4.77083e-015 -1.59028e-015 3.18055e-015 3.18055e-015 -2.78299e-015 -3.86217e-031 7.95139e-015 2.78299e-015 -3.18055e-015 3.18055e-015 -3.97569e-016 -4.77083e-015 4.77083e-015 -1.59028e-015 -3.86217e-031 7.95139e-015 2.78299e-015 -3.18055e-015 3.18055e-015 -3.97569e-016 -4.77083e-015 4.77083e-015 -1.59028e-015 -41.7436 -5.70939 5.79376 -30.1104 -58.4715 15.688 -14.3157 -2.1103 -13.9127 3.78774 0.686714 -0.277203 6.36111e-015 9.54166e-015 -3.18055e-015 -5.38976e-006 -1.14581e-006 1.81707e-007 5.38976e-006 1.14581e-006 -1.81707e-007 1.59028e-015 9.54166e-015 -2.38542e-015 6.36111e-015 3.18055e-015 3.18055e-015 -5.38976e-006 -1.14581e-006 1.81707e-007 5.38976e-006 1.14581e-006 -1.81707e-007 6.36111e-015 3.18055e-015 3.18055e-015 -5.38976e-006 -1.14581e-006 1.81707e-007 5.38976e-006 1.14581e-006 -1.81707e-007 1.59028e-015 9.54166e-015 -2.38542e-015 6.36111e-015 3.18055e-015 3.18055e-015 -5.38976e-006 -1.14581e-006 1.81707e-007 5.38976e-006 1.14581e-006 -1.81707e-007 6.36111e-015 3.18055e-015 3.18055e-015 -5.38976e-006 -1.14581e-006 1.81707e-007 5.38976e-006 1.14581e-006 -1.81707e-007 176.39 -69.4735 173.15 -3.84562 -0.479425 2.27282 7.2613 42.1588 3.49319 -176.136 -69.5374 -172.921 3.95374 -0.611633 -2.33428 -7.40237 42.1923 -3.411 
0.0013809 76.8248 61.7104 -180 70.0004 -180 -0.23097 12.2617 -0.259597 -0.41845 24.5243 -0.484508 -0.41845 24.5243 -0.484507 -3.9478e-007 -4.91521 -5.01762e-006 -1.16654e-007 20.3533 1.11925e-007 41.6146 -5.8362 -5.70028 30.4378 -58.4866 -14.6796 12.4939 -2.52454 12.775 -3.63806 0.837748 -0.0408398 1.59028e-015 -4.77083e-015 -1.98785e-015 7.72434e-032 -1.11319e-014 3.97569e-016 -3.18055e-015 -6.36111e-015 -3.97569e-016 1.59028e-015 4.77083e-015 -3.57812e-015 -1.54487e-031 -1.11319e-014 -7.95139e-016 4.96564e-031 -7.95139e-015 3.57812e-015 1.10348e-031 -7.95139e-015 7.95139e-016 -1.54487e-031 -1.11319e-014 -7.95139e-016 4.96564e-031 -7.95139e-015 3.57812e-015 1.10348e-031 -7.95139e-015 7.95139e-016 1.59028e-015 4.77083e-015 -3.57812e-015 -1.54487e-031 -1.11319e-014 -7.95139e-016 4.96564e-031 -7.95139e-015 3.57812e-015 1.10348e-031 -7.95139e-015 7.95139e-016 -1.54487e-031 -1.11319e-014 -7.95139e-016 4.96564e-031 -7.95139e-015 3.57812e-015 1.10348e-031 -7.95139e-015 7.95139e-016 -41.8269 -5.79041 5.69894 -30.1104 -58.4715 15.688 -14.3157 -2.1103 -13.9127 3.78775 0.686742 -0.277208 -4.77083e-015 -6.36111e-015 -7.95139e-016 3.67033e-006 2.02673e-006 5.84165e-006 -1.59028e-015 -3.18055e-015 -0 -8.82781e-032 -3.18055e-015 -1.59028e-015 3.18055e-015 -9.54166e-015 7.95139e-016 3.67033e-006 2.02673e-006 5.84165e-006 8.82781e-032 -3.18055e-015 1.59028e-015 3.18055e-015 -9.54166e-015 7.95139e-016 3.67033e-006 2.02673e-006 5.84165e-006 8.82781e-032 -3.18055e-015 1.59028e-015 -8.82781e-032 -3.18055e-015 -1.59028e-015 3.18055e-015 -9.54166e-015 7.95139e-016 3.67033e-006 2.02673e-006 5.84165e-006 8.82781e-032 -3.18055e-015 1.59028e-015 3.18055e-015 -9.54166e-015 7.95139e-016 3.67033e-006 2.02673e-006 5.84165e-006 8.82781e-032 -3.18055e-015 1.59028e-015 176.39 -69.4735 173.15 -3.84562 -0.479425 2.27282 7.2613 42.1588 3.49319 -176.136 -69.5374 -172.921 3.95374 -0.611633 -2.33428 -7.40237 42.1923 -3.411 
